<svg width="43" height="43" viewBox="0 0 43 43" fill="none" xmlns="http://www.w3.org/2000/svg">
<path d="M21.5 39.4167C23.479 39.4167 25.0834 37.8124 25.0834 35.8333C25.0834 33.8543 23.479 32.25 21.5 32.25C19.521 32.25 17.9167 33.8543 17.9167 35.8333C17.9167 37.8124 19.521 39.4167 21.5 39.4167Z" fill="black"/>
<path d="M21.5 10.75C23.479 10.75 25.0834 9.1457 25.0834 7.16668C25.0834 5.18766 23.479 3.58334 21.5 3.58334C19.521 3.58334 17.9167 5.18766 17.9167 7.16668C17.9167 9.1457 19.521 10.75 21.5 10.75Z" fill="black"/>
<path d="M11.3645 35.2188C13.3435 35.2188 14.9479 33.6145 14.9479 31.6355C14.9479 29.6564 13.3435 28.0521 11.3645 28.0521C9.3855 28.0521 7.78119 29.6564 7.78119 31.6355C7.78119 33.6145 9.3855 35.2188 11.3645 35.2188Z" fill="black"/>
<path d="M31.6355 14.9479C33.6145 14.9479 35.2188 13.3435 35.2188 11.3645C35.2188 9.3855 33.6145 7.78119 31.6355 7.78119C29.6564 7.78119 28.0521 9.3855 28.0521 11.3645C28.0521 13.3435 29.6564 14.9479 31.6355 14.9479Z" fill="black"/>
<path d="M7.16661 25.0851C9.14662 25.0851 10.7517 23.48 10.7517 21.5C10.7517 19.52 9.14662 17.9149 7.16661 17.9149C5.1866 17.9149 3.58148 19.52 3.58148 21.5C3.58148 23.48 5.1866 25.0851 7.16661 25.0851Z" fill="black"/>
<path d="M35.8333 25.0833C37.8124 25.0833 39.4167 23.479 39.4167 21.5C39.4167 19.521 37.8124 17.9167 35.8333 17.9167C33.8543 17.9167 32.25 19.521 32.25 21.5C32.25 23.479 33.8543 25.0833 35.8333 25.0833Z" fill="black"/>
<path d="M11.3645 14.9497C13.3435 14.9497 14.9479 13.3453 14.9479 11.3663C14.9479 9.3873 13.3435 7.78299 11.3645 7.78299C9.3855 7.78299 7.78119 9.3873 7.78119 11.3663C7.78119 13.3453 9.3855 14.9497 11.3645 14.9497Z" fill="black"/>
<path d="M31.6355 35.2206C33.6145 35.2206 35.2188 33.6163 35.2188 31.6373C35.2188 29.6582 33.6145 28.0539 31.6355 28.0539C29.6564 28.0539 28.0521 29.6582 28.0521 31.6373C28.0521 33.6163 29.6564 35.2206 31.6355 35.2206Z" fill="black"/>
</svg>
