<svg width="43" height="43" viewBox="0 0 43 43" fill="none" xmlns="http://www.w3.org/2000/svg">
<path d="M21.5001 39.4167C23.4791 39.4167 25.0834 37.8124 25.0834 35.8333C25.0834 33.8543 23.4791 32.25 21.5001 32.25C19.5211 32.25 17.9167 33.8543 17.9167 35.8333C17.9167 37.8124 19.5211 39.4167 21.5001 39.4167Z" fill="black"/>
<path d="M21.5001 10.75C23.4791 10.75 25.0834 9.1457 25.0834 7.16668C25.0834 5.18766 23.4791 3.58334 21.5001 3.58334C19.5211 3.58334 17.9167 5.18766 17.9167 7.16668C17.9167 9.1457 19.5211 10.75 21.5001 10.75Z" fill="black"/>
<path d="M11.3646 35.2188C13.3436 35.2188 14.9479 33.6145 14.9479 31.6355C14.9479 29.6564 13.3436 28.0521 11.3646 28.0521C9.38556 28.0521 7.78125 29.6564 7.78125 31.6355C7.78125 33.6145 9.38556 35.2188 11.3646 35.2188Z" fill="black"/>
<path d="M31.6356 14.9479C33.6146 14.9479 35.2189 13.3435 35.2189 11.3645C35.2189 9.3855 33.6146 7.78119 31.6356 7.78119C29.6566 7.78119 28.0522 9.3855 28.0522 11.3645C28.0522 13.3435 29.6566 14.9479 31.6356 14.9479Z" fill="black"/>
<path d="M7.16667 25.0851C9.14668 25.0851 10.7518 23.48 10.7518 21.5C10.7518 19.52 9.14668 17.9149 7.16667 17.9149C5.18666 17.9149 3.58154 19.52 3.58154 21.5C3.58154 23.48 5.18666 25.0851 7.16667 25.0851Z" fill="black"/>
<path d="M35.8333 25.0833C37.8124 25.0833 39.4167 23.479 39.4167 21.5C39.4167 19.521 37.8124 17.9167 35.8333 17.9167C33.8543 17.9167 32.25 19.521 32.25 21.5C32.25 23.479 33.8543 25.0833 35.8333 25.0833Z" fill="black"/>
<path d="M11.3646 14.9497C13.3436 14.9497 14.9479 13.3453 14.9479 11.3663C14.9479 9.3873 13.3436 7.78299 11.3646 7.78299C9.38556 7.78299 7.78125 9.3873 7.78125 11.3663C7.78125 13.3453 9.38556 14.9497 11.3646 14.9497Z" fill="black"/>
<path d="M31.6356 35.2206C33.6146 35.2206 35.2189 33.6163 35.2189 31.6373C35.2189 29.6582 33.6146 28.0539 31.6356 28.0539C29.6566 28.0539 28.0522 29.6582 28.0522 31.6373C28.0522 33.6163 29.6566 35.2206 31.6356 35.2206Z" fill="black"/>
</svg>
