<svg width="37" height="42" viewBox="0 0 37 42" fill="none" xmlns="http://www.w3.org/2000/svg">
<path d="M14.2572 16.4715H14.2797M23.2382 16.4715H23.2607M3.03101 18.7167C3.03101 14.5484 4.68687 10.5508 7.63433 7.60332C10.5818 4.65586 14.5794 3 18.7477 3C22.9161 3 26.9137 4.65586 29.8611 7.60332C32.8086 10.5508 34.4644 14.5484 34.4644 18.7167V34.4334C34.5706 35.2808 34.4026 36.1398 33.985 36.8847C33.5673 37.6296 32.9221 38.2211 32.1438 38.5726C31.3656 38.9241 30.4952 39.017 29.6602 38.8378C28.8253 38.6586 28.0697 38.2167 27.5042 37.5768C27.1577 37.1335 26.7148 36.7749 26.209 36.5283C25.7033 36.2817 25.148 36.1536 24.5854 36.1536C24.0227 36.1536 23.4674 36.2817 22.9617 36.5283C22.456 36.7749 22.013 37.1335 21.6665 37.5768C21.32 38.0201 20.8771 38.3786 20.3714 38.6252C19.8656 38.8718 19.3104 39 18.7477 39C18.1851 39 17.6298 38.8718 17.1241 38.6252C16.6183 38.3786 16.1754 38.0201 15.8289 37.5768C15.4824 37.1335 15.0395 36.7749 14.5337 36.5283C14.028 36.2817 13.4727 36.1536 12.9101 36.1536C12.3474 36.1536 11.7922 36.2817 11.2864 36.5283C10.7807 36.7749 10.3378 37.1335 9.99127 37.5768C9.42578 38.2167 8.67019 38.6586 7.83524 38.8378C7.00029 39.017 6.1299 38.9241 5.35162 38.5726C4.57334 38.2211 3.92811 37.6296 3.5105 36.8847C3.09288 36.1398 2.92484 35.2808 3.03101 34.4334V18.7167Z" stroke="white" stroke-width="4.49049" stroke-linecap="round" stroke-linejoin="round"/>
<path d="M14.2568 25.4525C15.5745 26.37 17.1417 26.8618 18.7473 26.8618C20.353 26.8618 21.9201 26.37 23.2378 25.4525" stroke="white" stroke-width="4.49049" stroke-linecap="round" stroke-linejoin="round"/>
</svg>
