<svg width="33" height="37" viewBox="0 0 33 37" fill="none" xmlns="http://www.w3.org/2000/svg">
<path d="M16.444 22.4056L12.0657 26.7017C10.9146 27.8529 10.2773 29.3534 10.2773 30.9567C10.2773 34.2867 13.0523 37.0001 16.444 37.0001C19.8357 37.0001 22.6107 34.2867 22.6107 30.9567C22.6107 29.3534 21.9734 27.8323 20.8223 26.7017L16.444 22.4056Z" fill="white"/>
<path d="M24.6666 8.22222L23.7622 9.35277C21.3367 12.3744 16.4444 10.6683 16.4444 6.78333V0C16.4444 0 0 8.22222 0 22.6111C0 28.6133 3.20666 33.855 7.99611 36.7122C6.845 35.0883 6.16666 33.0944 6.16666 30.9566C6.16666 28.2433 7.23555 25.6944 9.18833 23.7622L16.4444 16.65L23.7005 23.7828C25.6533 25.6944 26.7222 28.2433 26.7222 30.9772C26.7222 33.0739 26.085 35.0061 24.975 36.63C28.86 34.2661 31.7378 30.34 32.6011 25.7355C33.9578 18.4383 30.4016 11.5522 24.6666 8.22222Z" fill="white"/>
</svg>
