<svg width="42" height="42" viewBox="0 0 42 42" fill="none" xmlns="http://www.w3.org/2000/svg">
<path d="M11.5002 24.8C12.508 24.8 13.4746 24.3996 14.1872 23.687C14.8998 22.9744 15.3002 22.0078 15.3002 21C15.3002 19.9922 14.8998 19.0256 14.1872 18.313C13.4746 17.6004 12.508 17.2 11.5002 17.2C10.4924 17.2 9.52583 17.6004 8.81319 18.313C8.10055 19.0256 7.7002 19.9922 7.7002 21C7.7002 22.0078 8.10055 22.9744 8.81319 23.687C9.52583 24.3996 10.4924 24.8 11.5002 24.8ZM30.5002 24.8C31.508 24.8 32.4746 24.3996 33.1872 23.687C33.8998 22.9744 34.3002 22.0078 34.3002 21C34.3002 19.9922 33.8998 19.0256 33.1872 18.313C32.4746 17.6004 31.508 17.2 30.5002 17.2C29.4924 17.2 28.5258 17.6004 27.8132 18.313C27.1006 19.0256 26.7002 19.9922 26.7002 21C26.7002 22.0078 27.1006 22.9744 27.8132 23.687C28.5258 24.3996 29.4924 24.8 30.5002 24.8ZM21.0002 15.3C22.008 15.3 22.9746 14.8996 23.6872 14.187C24.3998 13.4744 24.8002 12.5078 24.8002 11.5C24.8002 10.4922 24.3998 9.52563 23.6872 8.81299C22.9746 8.10035 22.008 7.7 21.0002 7.7C19.9924 7.7 19.0258 8.10035 18.3132 8.81299C17.6006 9.52563 17.2002 10.4922 17.2002 11.5C17.2002 12.5078 17.6006 13.4744 18.3132 14.187C19.0258 14.8996 19.9924 15.3 21.0002 15.3ZM21.0002 34.3C22.008 34.3 22.9746 33.8996 23.6872 33.187C24.3998 32.4744 24.8002 31.5078 24.8002 30.5C24.8002 29.4922 24.3998 28.5256 23.6872 27.813C22.9746 27.1004 22.008 26.7 21.0002 26.7C19.9924 26.7 19.0258 27.1004 18.3132 27.813C17.6006 28.5256 17.2002 29.4922 17.2002 30.5C17.2002 31.5078 17.6006 32.4744 18.3132 33.187C19.0258 33.8996 19.9924 34.3 21.0002 34.3Z" stroke="white" stroke-width="2.85" stroke-linecap="round" stroke-linejoin="round"/>
<path d="M2 21C2 31.4937 10.5063 40 21 40C31.4937 40 40 31.4937 40 21C40 10.5063 31.4937 2 21 2C10.5063 2 2 10.5063 2 21ZM2 21V40" stroke="white" stroke-width="2.85" stroke-linecap="round" stroke-linejoin="round"/>
</svg>
