<svg width="28" height="23" viewBox="0 0 28 23" fill="none" xmlns="http://www.w3.org/2000/svg">
<path d="M18.197 21.6364V19.3434C18.197 18.1272 17.7138 16.9608 16.8538 16.1007C15.9938 15.2407 14.8274 14.7576 13.6111 14.7576H5.58586C4.36961 14.7576 3.20318 15.2407 2.34317 16.1007C1.48315 16.9608 1 18.1272 1 19.3434V21.6364" stroke="white" stroke-width="2" stroke-linecap="round" stroke-linejoin="round"/>
<path d="M9.59855 10.1717C12.1313 10.1717 14.1844 8.11856 14.1844 5.58586C14.1844 3.05316 12.1313 1 9.59855 1C7.06585 1 5.0127 3.05316 5.0127 5.58586C5.0127 8.11856 7.06585 10.1717 9.59855 10.1717Z" stroke="white" stroke-width="2" stroke-linecap="round" stroke-linejoin="round"/>
<path d="M22.7832 6.73242V13.6112" stroke="white" stroke-width="2" stroke-linecap="round" stroke-linejoin="round"/>
<path d="M26.2216 10.1718H19.3428" stroke="white" stroke-width="2" stroke-linecap="round" stroke-linejoin="round"/>
</svg>
