<svg width="42" height="42" viewBox="0 0 42 42" fill="none" xmlns="http://www.w3.org/2000/svg">
<path d="M11.5002 24.8002C12.508 24.8002 13.4746 24.3998 14.1872 23.6872C14.8998 22.9746 15.3002 22.008 15.3002 21.0002C15.3002 19.9924 14.8998 19.0258 14.1872 18.3132C13.4746 17.6006 12.508 17.2002 11.5002 17.2002C10.4924 17.2002 9.52583 17.6006 8.81319 18.3132C8.10055 19.0258 7.7002 19.9924 7.7002 21.0002C7.7002 22.008 8.10055 22.9746 8.81319 23.6872C9.52583 24.3998 10.4924 24.8002 11.5002 24.8002ZM30.5002 24.8002C31.508 24.8002 32.4746 24.3998 33.1872 23.6872C33.8998 22.9746 34.3002 22.008 34.3002 21.0002C34.3002 19.9924 33.8998 19.0258 33.1872 18.3132C32.4746 17.6006 31.508 17.2002 30.5002 17.2002C29.4924 17.2002 28.5258 17.6006 27.8132 18.3132C27.1006 19.0258 26.7002 19.9924 26.7002 21.0002C26.7002 22.008 27.1006 22.9746 27.8132 23.6872C28.5258 24.3998 29.4924 24.8002 30.5002 24.8002ZM21.0002 15.3002C22.008 15.3002 22.9746 14.8998 23.6872 14.1872C24.3998 13.4746 24.8002 12.508 24.8002 11.5002C24.8002 10.4924 24.3998 9.52583 23.6872 8.81319C22.9746 8.10055 22.008 7.7002 21.0002 7.7002C19.9924 7.7002 19.0258 8.10055 18.3132 8.81319C17.6006 9.52583 17.2002 10.4924 17.2002 11.5002C17.2002 12.508 17.6006 13.4746 18.3132 14.1872C19.0258 14.8998 19.9924 15.3002 21.0002 15.3002ZM21.0002 34.3002C22.008 34.3002 22.9746 33.8998 23.6872 33.1872C24.3998 32.4746 24.8002 31.508 24.8002 30.5002C24.8002 29.4924 24.3998 28.5258 23.6872 27.8132C22.9746 27.1006 22.008 26.7002 21.0002 26.7002C19.9924 26.7002 19.0258 27.1006 18.3132 27.8132C17.6006 28.5258 17.2002 29.4924 17.2002 30.5002C17.2002 31.508 17.6006 32.4746 18.3132 33.1872C19.0258 33.8998 19.9924 34.3002 21.0002 34.3002Z" stroke="white" stroke-width="2.85" stroke-linecap="round" stroke-linejoin="round"/>
<path d="M2 21C2 31.4937 10.5063 40 21 40C31.4937 40 40 31.4937 40 21C40 10.5063 31.4937 2 21 2C10.5063 2 2 10.5063 2 21ZM2 21V40" stroke="white" stroke-width="2.85" stroke-linecap="round" stroke-linejoin="round"/>
</svg>
