<svg width="28" height="474" viewBox="0 0 28 474" fill="none" xmlns="http://www.w3.org/2000/svg">
<path d="M18.197 131.636V129.343C18.197 128.127 17.7138 126.961 16.8538 126.101C15.9938 125.241 14.8274 124.758 13.6111 124.758H5.58586C4.36961 124.758 3.20318 125.241 2.34317 126.101C1.48315 126.961 1 128.127 1 129.343V131.636" stroke="white" stroke-width="2" stroke-linecap="round" stroke-linejoin="round"/>
<path d="M9.59855 120.172C12.1313 120.172 14.1844 118.119 14.1844 115.586C14.1844 113.053 12.1313 111 9.59855 111C7.06585 111 5.0127 113.053 5.0127 115.586C5.0127 118.119 7.06585 120.172 9.59855 120.172Z" stroke="white" stroke-width="2" stroke-linecap="round" stroke-linejoin="round"/>
<path d="M22.7832 116.732V123.611" stroke="white" stroke-width="2" stroke-linecap="round" stroke-linejoin="round"/>
<path d="M26.2216 120.172H19.3428" stroke="white" stroke-width="2" stroke-linecap="round" stroke-linejoin="round"/>
<path d="M18.197 21.6364V19.3434C18.197 18.1272 17.7138 16.9608 16.8538 16.1007C15.9938 15.2407 14.8274 14.7576 13.6111 14.7576H5.58586C4.36961 14.7576 3.20318 15.2407 2.34317 16.1007C1.48315 16.9608 1 18.1272 1 19.3434V21.6364" stroke="white" stroke-width="2" stroke-linecap="round" stroke-linejoin="round"/>
<path d="M9.59855 10.1717C12.1313 10.1717 14.1844 8.11856 14.1844 5.58586C14.1844 3.05316 12.1313 1 9.59855 1C7.06585 1 5.0127 3.05316 5.0127 5.58586C5.0127 8.11856 7.06585 10.1717 9.59855 10.1717Z" stroke="white" stroke-width="2" stroke-linecap="round" stroke-linejoin="round"/>
<path d="M22.7832 6.73242V13.6112" stroke="white" stroke-width="2" stroke-linecap="round" stroke-linejoin="round"/>
<path d="M26.2216 10.1718H19.3428" stroke="white" stroke-width="2" stroke-linecap="round" stroke-linejoin="round"/>
<path d="M18.197 360.636V358.343C18.197 357.127 17.7138 355.961 16.8538 355.101C15.9938 354.241 14.8274 353.758 13.6111 353.758H5.58586C4.36961 353.758 3.20318 354.241 2.34317 355.101C1.48315 355.961 1 357.127 1 358.343V360.636" stroke="white" stroke-width="2" stroke-linecap="round" stroke-linejoin="round"/>
<path d="M9.59855 349.172C12.1313 349.172 14.1844 347.119 14.1844 344.586C14.1844 342.053 12.1313 340 9.59855 340C7.06585 340 5.0127 342.053 5.0127 344.586C5.0127 347.119 7.06585 349.172 9.59855 349.172Z" stroke="white" stroke-width="2" stroke-linecap="round" stroke-linejoin="round"/>
<path d="M22.7832 345.732V352.611" stroke="white" stroke-width="2" stroke-linecap="round" stroke-linejoin="round"/>
<path d="M26.2216 349.172H19.3428" stroke="white" stroke-width="2" stroke-linecap="round" stroke-linejoin="round"/>
<path d="M18.197 472.636V470.343C18.197 469.127 17.7138 467.961 16.8538 467.101C15.9938 466.241 14.8274 465.758 13.6111 465.758H5.58586C4.36961 465.758 3.20318 466.241 2.34317 467.101C1.48315 467.961 1 469.127 1 470.343V472.636" stroke="white" stroke-width="2" stroke-linecap="round" stroke-linejoin="round"/>
<path d="M9.59855 461.172C12.1313 461.172 14.1844 459.119 14.1844 456.586C14.1844 454.053 12.1313 452 9.59855 452C7.06585 452 5.0127 454.053 5.0127 456.586C5.0127 459.119 7.06585 461.172 9.59855 461.172Z" stroke="white" stroke-width="2" stroke-linecap="round" stroke-linejoin="round"/>
<path d="M22.7832 457.732V464.611" stroke="white" stroke-width="2" stroke-linecap="round" stroke-linejoin="round"/>
<path d="M26.2216 461.172H19.3428" stroke="white" stroke-width="2" stroke-linecap="round" stroke-linejoin="round"/>
</svg>
