<svg width="42" height="42" viewBox="0 0 42 42" fill="none" xmlns="http://www.w3.org/2000/svg">
<path d="M11.5 24.8C12.5078 24.8 13.4744 24.3996 14.187 23.687C14.8997 22.9743 15.3 22.0078 15.3 21C15.3 19.9921 14.8997 19.0256 14.187 18.3129C13.4744 17.6003 12.5078 17.2 11.5 17.2C10.4922 17.2 9.52564 17.6003 8.81301 18.3129C8.10037 19.0256 7.70001 19.9921 7.70001 21C7.70001 22.0078 8.10037 22.9743 8.81301 23.687C9.52564 24.3996 10.4922 24.8 11.5 24.8ZM30.5 24.8C31.5078 24.8 32.4744 24.3996 33.187 23.687C33.8997 22.9743 34.3 22.0078 34.3 21C34.3 19.9921 33.8997 19.0256 33.187 18.3129C32.4744 17.6003 31.5078 17.2 30.5 17.2C29.4922 17.2 28.5256 17.6003 27.813 18.3129C27.1004 19.0256 26.7 19.9921 26.7 21C26.7 22.0078 27.1004 22.9743 27.813 23.687C28.5256 24.3996 29.4922 24.8 30.5 24.8ZM21 15.3C22.0078 15.3 22.9744 14.8996 23.687 14.187C24.3997 13.4743 24.8 12.5078 24.8 11.5C24.8 10.4921 24.3997 9.52558 23.687 8.81295C22.9744 8.10031 22.0078 7.69995 21 7.69995C19.9922 7.69995 19.0256 8.10031 18.313 8.81295C17.6004 9.52558 17.2 10.4921 17.2 11.5C17.2 12.5078 17.6004 13.4743 18.313 14.187C19.0256 14.8996 19.9922 15.3 21 15.3ZM21 34.3C22.0078 34.3 22.9744 33.8996 23.687 33.187C24.3997 32.4743 24.8 31.5078 24.8 30.5C24.8 29.4921 24.3997 28.5256 23.687 27.8129C22.9744 27.1003 22.0078 26.7 21 26.7C19.9922 26.7 19.0256 27.1003 18.313 27.8129C17.6004 28.5256 17.2 29.4921 17.2 30.5C17.2 31.5078 17.6004 32.4743 18.313 33.187C19.0256 33.8996 19.9922 34.3 21 34.3Z" stroke="white" stroke-width="2.85" stroke-linecap="round" stroke-linejoin="round"/>
<path d="M2 21C2 31.4937 10.5063 40 21 40C31.4937 40 40 31.4937 40 21C40 10.5063 31.4937 2 21 2C10.5063 2 2 10.5063 2 21ZM2 21V40" stroke="white" stroke-width="2.85" stroke-linecap="round" stroke-linejoin="round"/>
</svg>
