<svg width="110" height="110" viewBox="0 0 110 110" fill="none" xmlns="http://www.w3.org/2000/svg">
<path d="M59.9958 91.6667H27.4999L54.9999 64.1667L63.6166 72.7833C66.4583 68.2917 70.3999 64.625 75.1666 62.3333L82.4999 55V59.9958C84.0124 59.7667 85.5249 59.5833 87.0833 59.5833C88.6416 59.5833 90.1541 59.7667 91.6666 59.9958V36.6667L64.1666 9.16666H27.4999C22.4124 9.16666 18.3333 13.2458 18.3333 18.3333V91.6667C18.3333 94.0978 19.299 96.4294 21.0181 98.1485C22.7372 99.8676 25.0688 100.833 27.4999 100.833H63.2958C61.6916 98.0375 60.5458 94.9667 59.9958 91.6667ZM59.5833 16.0417L84.7916 41.25H59.5833V16.0417ZM36.6666 41.25C39.0977 41.25 41.4293 42.2158 43.1484 43.9349C44.8675 45.6539 45.8333 47.9855 45.8333 50.4167C45.8333 52.8478 44.8675 55.1794 43.1484 56.8985C41.4293 58.6176 39.0977 59.5833 36.6666 59.5833C31.5791 59.5833 27.4999 55.5042 27.4999 50.4167C27.4999 45.3292 31.6249 41.25 36.6666 41.25ZM91.6666 68.75V82.5H105.417V91.6667H91.6666V105.417H82.4999V91.6667H68.7499V82.5H82.4999V68.75H91.6666Z" fill="black"/>
</svg>
