<svg width="110" height="110" viewBox="0 0 110 110" fill="none" xmlns="http://www.w3.org/2000/svg">
<path d="M59.9959 91.6667H27.5L55 64.1667L63.6167 72.7833C66.4584 68.2917 70.4 64.625 75.1667 62.3333L82.5 55V59.9958C84.0125 59.7667 85.525 59.5833 87.0834 59.5833C88.6417 59.5833 90.1542 59.7667 91.6667 59.9958V36.6667L64.1667 9.16666H27.5C22.4125 9.16666 18.3334 13.2458 18.3334 18.3333V91.6667C18.3334 94.0978 19.2991 96.4294 21.0182 98.1485C22.7373 99.8676 25.0689 100.833 27.5 100.833H63.2959C61.6917 98.0375 60.5459 94.9667 59.9959 91.6667ZM59.5834 16.0417L84.7917 41.25H59.5834V16.0417ZM36.6667 41.25C39.0979 41.25 41.4294 42.2158 43.1485 43.9349C44.8676 45.6539 45.8334 47.9855 45.8334 50.4167C45.8334 52.8478 44.8676 55.1794 43.1485 56.8985C41.4294 58.6176 39.0979 59.5833 36.6667 59.5833C31.5792 59.5833 27.5 55.5042 27.5 50.4167C27.5 45.3292 31.625 41.25 36.6667 41.25ZM91.6667 68.75V82.5H105.417V91.6667H91.6667V105.417H82.5V91.6667H68.75V82.5H82.5V68.75H91.6667Z" fill="black"/>
</svg>
