<svg width="777" height="51" viewBox="0 0 777 51" fill="none" xmlns="http://www.w3.org/2000/svg">
<path d="M0 20.1859C0 9.14022 8.95431 0.185913 20 0.185913H757C768.046 0.185913 777 9.14022 777 20.1859V30.1859C777 41.2316 768.046 50.1859 757 50.1859H20C8.95431 50.1859 0 41.2316 0 30.1859V20.1859Z" fill="white"/>
<path d="M28.668 5.18591C26.0716 5.18591 23.5007 5.70323 21.1019 6.70832C18.7032 7.71342 16.5237 9.18661 14.6878 11.0438C10.98 14.7945 8.89697 19.8816 8.89697 25.1859C8.89697 30.4902 10.98 35.5773 14.6878 39.328C16.5237 41.1852 18.7032 42.6584 21.1019 43.6635C23.5007 44.6686 26.0716 45.1859 28.668 45.1859C33.9116 45.1859 38.9404 43.0788 42.6482 39.328C46.3559 35.5773 48.439 30.4902 48.439 25.1859C48.439 22.5595 47.9276 19.9588 46.934 17.5322C45.9404 15.1057 44.4841 12.9009 42.6482 11.0438C40.8123 9.18661 38.6327 7.71342 36.234 6.70832C33.8353 5.70323 31.2643 5.18591 28.668 5.18591ZM18.9209 37.7459C19.771 35.9459 24.951 34.1859 28.668 34.1859C32.3849 34.1859 37.5649 35.9459 38.4151 37.7459C35.6459 39.978 32.2087 41.191 28.668 41.1859C24.9906 41.1859 21.6097 39.9059 18.9209 37.7459ZM41.2423 34.8459C38.4151 31.3659 31.5545 30.1859 28.668 30.1859C25.7814 30.1859 18.9209 31.3659 16.0936 34.8459C13.9903 32.0752 12.8505 28.6793 12.8512 25.1859C12.8512 16.3659 19.949 9.18591 28.668 9.18591C37.387 9.18591 44.4848 16.3659 44.4848 25.1859C44.4848 28.8259 43.259 32.1859 41.2423 34.8459ZM28.668 13.1859C24.8324 13.1859 21.7481 16.3059 21.7481 20.1859C21.7481 24.0659 24.8324 27.1859 28.668 27.1859C32.5035 27.1859 35.5878 24.0659 35.5878 20.1859C35.5878 16.3059 32.5035 13.1859 28.668 13.1859ZM28.668 23.1859C27.8814 23.1859 27.1271 22.8698 26.5709 22.3072C26.0148 21.7446 25.7023 20.9816 25.7023 20.1859C25.7023 19.3903 26.0148 18.6272 26.5709 18.0646C27.1271 17.502 27.8814 17.1859 28.668 17.1859C29.4545 17.1859 30.2088 17.502 30.765 18.0646C31.3212 18.6272 31.6336 19.3903 31.6336 20.1859C31.6336 20.9816 31.3212 21.7446 30.765 22.3072C30.2088 22.8698 29.4545 23.1859 28.668 23.1859Z" fill="black" fill-opacity="0.78"/>
</svg>
