<svg width="777" height="51" viewBox="0 0 777 51" fill="none" xmlns="http://www.w3.org/2000/svg">
<path d="M0 20.7788C0 9.73311 8.95431 0.778809 20 0.778809H757C768.046 0.778809 777 9.73311 777 20.7788V30.7788C777 41.8245 768.046 50.7788 757 50.7788H20C8.95431 50.7788 0 41.8245 0 30.7788V20.7788Z" fill="white"/>
<path d="M28.668 5.77881C26.0716 5.77881 23.5007 6.29612 21.1019 7.30122C18.7032 8.30631 16.5237 9.7795 14.6878 11.6367C10.98 15.3874 8.89697 20.4745 8.89697 25.7788C8.89697 31.0831 10.98 36.1702 14.6878 39.9209C16.5237 41.7781 18.7032 43.2513 21.1019 44.2564C23.5007 45.2615 26.0716 45.7788 28.668 45.7788C33.9116 45.7788 38.9404 43.6717 42.6482 39.9209C46.3559 36.1702 48.439 31.0831 48.439 25.7788C48.439 23.1524 47.9276 20.5517 46.934 18.1251C45.9404 15.6986 44.4841 13.4938 42.6482 11.6367C40.8123 9.7795 38.6327 8.30631 36.234 7.30122C33.8353 6.29612 31.2643 5.77881 28.668 5.77881ZM18.9209 38.3388C19.771 36.5388 24.951 34.7788 28.668 34.7788C32.3849 34.7788 37.5649 36.5388 38.4151 38.3388C35.6459 40.5709 32.2087 41.7839 28.668 41.7788C24.9906 41.7788 21.6097 40.4988 18.9209 38.3388ZM41.2423 35.4388C38.4151 31.9588 31.5545 30.7788 28.668 30.7788C25.7814 30.7788 18.9209 31.9588 16.0936 35.4388C13.9903 32.6681 12.8505 29.2722 12.8512 25.7788C12.8512 16.9588 19.949 9.77881 28.668 9.77881C37.387 9.77881 44.4848 16.9588 44.4848 25.7788C44.4848 29.4188 43.259 32.7788 41.2423 35.4388ZM28.668 13.7788C24.8324 13.7788 21.7481 16.8988 21.7481 20.7788C21.7481 24.6588 24.8324 27.7788 28.668 27.7788C32.5035 27.7788 35.5878 24.6588 35.5878 20.7788C35.5878 16.8988 32.5035 13.7788 28.668 13.7788ZM28.668 23.7788C27.8814 23.7788 27.1271 23.4627 26.5709 22.9001C26.0148 22.3375 25.7023 21.5745 25.7023 20.7788C25.7023 19.9832 26.0148 19.2201 26.5709 18.6575C27.1271 18.0949 27.8814 17.7788 28.668 17.7788C29.4545 17.7788 30.2088 18.0949 30.765 18.6575C31.3212 19.2201 31.6336 19.9832 31.6336 20.7788C31.6336 21.5745 31.3212 22.3375 30.765 22.9001C30.2088 23.4627 29.4545 23.7788 28.668 23.7788Z" fill="black" fill-opacity="0.78"/>
</svg>
