<svg width="777" height="51" viewBox="0 0 777 51" fill="none" xmlns="http://www.w3.org/2000/svg">
<path d="M0 20.593C0 9.54732 8.95431 0.593018 20 0.593018H757C768.046 0.593018 777 9.54732 777 20.593V30.593C777 41.6387 768.046 50.593 757 50.593H20C8.95431 50.593 0 41.6387 0 30.593V20.593Z" fill="white"/>
<path d="M28.668 5.59302C26.0716 5.59302 23.5007 6.11033 21.1019 7.11543C18.7032 8.12052 16.5237 9.59371 14.6878 11.4509C10.98 15.2016 8.89697 20.2887 8.89697 25.593C8.89697 30.8973 10.98 35.9844 14.6878 39.7352C16.5237 41.5923 18.7032 43.0655 21.1019 44.0706C23.5007 45.0757 26.0716 45.593 28.668 45.593C33.9116 45.593 38.9404 43.4859 42.6482 39.7352C46.3559 35.9844 48.439 30.8973 48.439 25.593C48.439 22.9666 47.9276 20.3659 46.934 17.9393C45.9404 15.5128 44.4841 13.3081 42.6482 11.4509C40.8123 9.59371 38.6327 8.12052 36.234 7.11543C33.8353 6.11033 31.2643 5.59302 28.668 5.59302ZM18.9209 38.153C19.771 36.353 24.951 34.593 28.668 34.593C32.3849 34.593 37.5649 36.353 38.4151 38.153C35.6459 40.3851 32.2087 41.5981 28.668 41.593C24.9906 41.593 21.6097 40.313 18.9209 38.153ZM41.2423 35.253C38.4151 31.773 31.5545 30.593 28.668 30.593C25.7814 30.593 18.9209 31.773 16.0936 35.253C13.9903 32.4823 12.8505 29.0864 12.8512 25.593C12.8512 16.773 19.949 9.59302 28.668 9.59302C37.387 9.59302 44.4848 16.773 44.4848 25.593C44.4848 29.233 43.259 32.593 41.2423 35.253ZM28.668 13.593C24.8324 13.593 21.7481 16.713 21.7481 20.593C21.7481 24.473 24.8324 27.593 28.668 27.593C32.5035 27.593 35.5878 24.473 35.5878 20.593C35.5878 16.713 32.5035 13.593 28.668 13.593ZM28.668 23.593C27.8814 23.593 27.1271 23.2769 26.5709 22.7143C26.0148 22.1517 25.7023 21.3887 25.7023 20.593C25.7023 19.7974 26.0148 19.0343 26.5709 18.4717C27.1271 17.9091 27.8814 17.593 28.668 17.593C29.4545 17.593 30.2088 17.9091 30.765 18.4717C31.3212 19.0343 31.6336 19.7974 31.6336 20.593C31.6336 21.3887 31.3212 22.1517 30.765 22.7143C30.2088 23.2769 29.4545 23.593 28.668 23.593Z" fill="black" fill-opacity="0.78"/>
</svg>
