<svg width="777" height="50" viewBox="0 0 777 50" fill="none" xmlns="http://www.w3.org/2000/svg">
<path d="M0 20C0 8.9543 8.95431 0 20 0H757C768.046 0 777 8.95431 777 20V30C777 41.0457 768.046 50 757 50H20C8.95431 50 0 41.0457 0 30V20Z" fill="white"/>
<path d="M28.668 5C26.0716 5 23.5007 5.51732 21.1019 6.52241C18.7032 7.5275 16.5237 9.00069 14.6878 10.8579C10.98 14.6086 8.89697 19.6957 8.89697 25C8.89697 30.3043 10.98 35.3914 14.6878 39.1421C16.5237 40.9993 18.7032 42.4725 21.1019 43.4776C23.5007 44.4827 26.0716 45 28.668 45C33.9116 45 38.9404 42.8929 42.6482 39.1421C46.3559 35.3914 48.439 30.3043 48.439 25C48.439 22.3736 47.9276 19.7728 46.934 17.3463C45.9404 14.9198 44.4841 12.715 42.6482 10.8579C40.8123 9.00069 38.6327 7.5275 36.234 6.52241C33.8353 5.51732 31.2643 5 28.668 5ZM18.9209 37.56C19.771 35.76 24.951 34 28.668 34C32.3849 34 37.5649 35.76 38.4151 37.56C35.6459 39.7921 32.2087 41.0051 28.668 41C24.9906 41 21.6097 39.72 18.9209 37.56ZM41.2423 34.66C38.4151 31.18 31.5545 30 28.668 30C25.7814 30 18.9209 31.18 16.0936 34.66C13.9903 31.8892 12.8505 28.4934 12.8512 25C12.8512 16.18 19.949 9 28.668 9C37.387 9 44.4848 16.18 44.4848 25C44.4848 28.64 43.259 32 41.2423 34.66ZM28.668 13C24.8324 13 21.7481 16.12 21.7481 20C21.7481 23.88 24.8324 27 28.668 27C32.5035 27 35.5878 23.88 35.5878 20C35.5878 16.12 32.5035 13 28.668 13ZM28.668 23C27.8814 23 27.1271 22.6839 26.5709 22.1213C26.0148 21.5587 25.7023 20.7956 25.7023 20C25.7023 19.2044 26.0148 18.4413 26.5709 17.8787C27.1271 17.3161 27.8814 17 28.668 17C29.4545 17 30.2088 17.3161 30.765 17.8787C31.3212 18.4413 31.6336 19.2044 31.6336 20C31.6336 20.7956 31.3212 21.5587 30.765 22.1213C30.2088 22.6839 29.4545 23 28.668 23Z" fill="black" fill-opacity="0.78"/>
</svg>
