<svg width="65" height="34" viewBox="0 0 65 34" fill="none" xmlns="http://www.w3.org/2000/svg">
<path d="M15.7219 4.56144C15.7433 4.59887 20.1658 1.95715 20.1818 1.98389C20.3048 2.19245 12.2941 8.9732 12.4492 9.24593C12.599 9.50796 22.5776 3.10689 22.7059 3.32614C22.861 3.59352 13.3262 11.6203 13.4599 11.8502C13.6631 12.2032 28.0588 2.85021 28.3102 3.27802C28.7112 3.96786 6.29948 18.3208 6.62568 18.893C7.00536 19.5507 33.6845 2.45448 34.0375 3.06411C34.5294 3.91438 4.89305 22.417 5.24599 23.032C5.74867 23.8983 37.4973 3.39032 37.9412 4.15502C38.3904 4.93042 2.05885 27.0267 2.492 27.7807C3.02141 28.6951 44.3637 2.26197 44.9466 3.26732C45.6471 4.48122 2.97327 29.0106 3.54546 30.0053C4.32621 31.3529 51.0054 1.04272 51.6792 2.21384C52.3743 3.4224 7.42784 29.3529 7.97864 30.3048C8.55083 31.2941 55.3904 1.22989 56.1284 2.50796C56.6631 3.4331 12.0588 29.4224 12.7487 30.6096C13.4706 31.8556 61.6364 0.818122 62.3155 1.98924C62.877 2.95716 18.4118 29.1176 18.9305 30.016C19.4973 30.9999 61.1016 4.24593 61.7166 5.31545C62.2193 6.18711 21.6203 30.1069 22.2139 31.1336C22.6738 31.9304 56.7273 9.9732 57.262 10.8983C57.738 11.7272 27.3957 30.5989 27.7861 31.278C28.2032 32.0053 57.5936 13.2566 57.9466 13.8662C58.2781 14.4438 35.4439 28.8716 35.8396 29.5507C36.0588 29.9304 51.7701 19.6737 52.0642 20.1818C52.2621 20.524 41.3209 29.155 41.4813 29.4331C41.6203 29.6737 51.3262 23.4759 51.4439 23.6791C51.5348 23.8395 45.3797 30.032 45.4813 30.2085C45.5081 30.2566 47.123 29.1978 47.1498 29.2459" stroke="#BE95C4" stroke-width="3" stroke-linecap="round" stroke-linejoin="round"/>
<path d="M18.6524 3.19778C18.6631 3.21917 19.4706 2.70045 19.4813 2.72184C19.5454 2.82879 23.6631 3.09617 23.7219 3.19778C23.7326 3.21917 24.5401 2.7058 24.5508 2.72184C24.5989 2.8074 28.3316 3.63093 28.3904 3.73253C28.4064 3.75392 30.7861 2.31543 30.8022 2.34217C30.8342 2.39564 32.754 4.36355 32.7861 4.41703C32.8021 4.43842 35.9144 2.57746 35.9305 2.59885C35.9893 2.70045 39.9359 3.29938 40 3.40633C40.0107 3.42772 40.9252 2.85018 40.9359 2.86623C40.9893 2.96248 45.9893 2.68975 46.0374 2.78066C46.0481 2.79671 46.1979 2.66302 46.2086 2.68441C46.2674 2.78601 50.7754 2.86623 50.8289 2.95179C50.8396 2.96783 51.1711 2.73254 51.1818 2.74858C51.2406 2.84484 55.6791 3.01061 55.7433 3.11756C55.754 3.13895 56.9679 2.3796 56.984 2.40099C57.0214 2.47051 60.1176 3.67906 60.1604 3.75393C60.1711 3.77532 61.8021 2.78602 61.8128 2.80206C61.8503 2.86623 61.1551 6.34216 61.2086 6.42773C61.2193 6.44912 62.9091 5.42238 62.9198 5.43842C63 5.57211 59.23 10.3529 59.3155 10.5026C59.3316 10.524 61.3583 9.28869 61.3743 9.31542C61.4706 9.4812 56.1925 15.417 56.2888 15.5881C56.2995 15.6095 57.0374 15.1229 57.0535 15.1496C57.139 15.294 51.7701 21.1176 51.877 21.3047C51.8877 21.3208 52.754 20.77 52.7647 20.7914C52.8129 20.8769 50.5348 24.8983 50.5882 24.9892C50.5989 25.0106 51.5882 24.3742 51.6043 24.401" stroke="black" stroke-width="3" stroke-linecap="round" stroke-linejoin="round"/>
<path d="M15.5829 4.31016C15.6043 4.34759 20.0268 1.70589 20.0428 1.73262C20.1658 1.94118 12.1551 8.72192 12.3102 8.99465C12.3262 9.02139 14.5722 7.65775 14.5883 7.67914C14.6631 7.80749 11.123 12.7112 11.1925 12.8235C11.2032 12.8396 12.0535 12.2995 12.0642 12.3209C12.1925 12.5401 6.38503 18.4545 6.49199 18.6364C6.50268 18.6578 8.85562 17.246 8.86632 17.2674C8.96258 17.4332 4.78611 22.8075 4.85562 22.9251C4.86632 22.9465 5.71659 22.4011 5.72728 22.4225C5.7968 22.5455 1.67915 27.7594 1.74867 27.877C1.75937 27.8931 2.60964 27.3529 2.62033 27.3743C2.66311 27.4439 2.54011 30.1765 2.57219 30.2353C2.58823 30.2567 4.29412 29.2139 4.31016 29.2353C4.35294 29.3048 6.97328 30.4866 7.00537 30.5401C7.01606 30.5561 8.74332 29.508 8.75936 29.5294C8.79145 29.5882 11.7273 30.7701 11.7701 30.8503C11.7808 30.8717 14.9358 28.9947 14.9519 29.016C14.984 29.0749 17.5562 30.4171 17.5882 30.4706C17.5989 30.4866 18.3957 29.9786 18.4064 29.9947C18.4385 30.0535 21.1872 31.3102 21.2246 31.3797C21.2353 31.3957 21.4278 31.2353 21.4385 31.2567C21.508 31.3797 26.7326 31.4278 26.7915 31.5294C26.8022 31.5508 31.246 28.9358 31.2567 28.9519C31.2941 29.0107 33.6471 30.4011 33.6898 30.4706C33.7005 30.4866 34.5027 29.9733 34.5134 29.9947C34.599 30.139 40.4118 29.5722 40.4759 29.6898C40.4866 29.7112 41.2032 29.246 41.2139 29.262C41.2513 29.3262 44.4278 30.4011 44.4706 30.4652C44.4867 30.4866 45.2834 29.9626 45.2995 29.9893" stroke="black" stroke-width="3" stroke-linecap="round" stroke-linejoin="round"/>
</svg>
