<svg width="65" height="34" viewBox="0 0 65 34" fill="none" xmlns="http://www.w3.org/2000/svg">
<path d="M16.0429 5.21929C16.0643 5.25672 20.4867 2.61501 20.5027 2.64175C20.6257 2.8503 12.6151 9.63105 12.7701 9.90378C12.9199 10.1658 22.8985 3.76474 23.0268 3.984C23.1819 4.25138 13.6472 12.2781 13.7808 12.5081C13.9841 12.861 28.3798 3.50806 28.6311 3.93587C29.0322 4.62571 6.6204 18.9786 6.9466 19.5508C7.32628 20.2086 34.0054 3.11234 34.3584 3.72196C34.8504 4.57223 5.21397 23.0749 5.56692 23.6899C6.06959 24.5562 37.8183 4.04817 38.2621 4.81288C38.7113 5.58828 2.37977 27.6845 2.81292 28.4385C3.34234 29.353 44.6846 2.91982 45.2675 3.92517C45.968 5.13908 3.32628 29.6471 3.90382 30.6417C4.68457 31.9893 51.3316 1.70057 52.0054 2.8717C52.7006 4.0749 7.78619 29.9947 8.33165 30.9466C8.90384 31.9359 55.7167 1.89309 56.4493 3.16582C56.984 4.09095 12.4065 30.0642 13.0963 31.2514C13.8183 32.4974 61.9627 1.47598 62.6418 2.6471C63.2033 3.61501 18.7594 29.7647 19.2782 30.6631C19.845 31.6471 61.4279 4.90913 62.0429 5.9733C62.5456 6.84496 21.968 30.7594 22.5562 31.7808C23.0161 32.5776 57.0536 10.6311 57.583 11.5562C58.0589 12.3797 27.7273 31.2514 28.1231 31.9305C28.5402 32.6578 57.9199 13.9198 58.2675 14.5241C58.599 15.1016 35.7755 29.5241 36.1659 30.2032C36.3851 30.5829 52.091 20.3316 52.3851 20.8396C52.583 21.1819 41.6471 29.8129 41.8022 30.0856C41.9413 30.3262 51.6418 24.1284 51.7594 24.3369C51.8503 24.4974 45.6953 30.6899 45.7969 30.8664C45.8236 30.9145 47.4386 29.8557 47.4653 29.9038" stroke="#5E548E" stroke-width="3" stroke-linecap="round" stroke-linejoin="round"/>
<path d="M18.9731 3.85561C18.9838 3.877 19.7913 3.35829 19.802 3.37968C19.8662 3.48663 23.9839 3.75401 24.0427 3.85561C24.0534 3.877 24.8609 3.36363 24.8716 3.37968C24.9197 3.46524 28.6523 4.28877 28.7111 4.39037C28.7272 4.41176 31.1122 2.97326 31.1229 3C31.155 3.05348 33.0747 5.02139 33.1068 5.07486C33.1229 5.09625 36.2352 3.23529 36.2512 3.25668C36.31 3.35829 40.2566 3.95722 40.3208 4.06417C40.3315 4.08556 41.2459 3.50802 41.2566 3.52406C41.3101 3.62032 46.3101 3.34759 46.3582 3.4385C46.3689 3.45454 46.5186 3.32086 46.5293 3.34225C46.5881 3.44385 51.0962 3.52407 51.1496 3.60963C51.1603 3.62567 51.4919 3.39037 51.5026 3.40642C51.5614 3.50267 55.9999 3.66845 56.064 3.7754C56.0747 3.79679 57.2886 3.03744 57.3047 3.05883C57.3421 3.12834 60.4384 4.3369 60.4812 4.41177C60.4919 4.43316 62.1229 3.44385 62.1336 3.4599C62.171 3.52407 61.4758 7 61.5293 7.08556C61.54 7.10695 63.2298 6.08021 63.2405 6.09626C63.3208 6.22994 59.5507 11.0107 59.6363 11.1604C59.6523 11.1818 61.679 9.94652 61.6951 9.97326C61.7913 10.139 56.5133 16.0749 56.6095 16.246C56.6202 16.2674 57.3582 15.7807 57.3742 15.8075C57.4598 15.9519 52.0908 21.7754 52.1977 21.9626C52.2084 21.9786 53.0748 21.4278 53.0855 21.4492C53.1336 21.5348 50.8555 25.5561 50.909 25.6471C50.9197 25.6684 51.909 25.0321 51.925 25.0588" stroke="black" stroke-width="3" stroke-linecap="round" stroke-linejoin="round"/>
<path d="M15.9037 4.96787C15.9251 5.00531 20.3476 2.3636 20.3636 2.39034C20.4866 2.59889 12.4759 9.37964 12.631 9.65236C12.647 9.6791 14.893 8.31547 14.9091 8.33686C14.9839 8.4652 11.4438 13.3689 11.5133 13.4812C11.524 13.4973 12.3743 12.9572 12.385 12.9786C12.5133 13.1978 6.70583 19.1123 6.81279 19.2941C6.82348 19.3155 9.17642 17.9037 9.18712 17.9251C9.28338 18.0909 5.10691 23.4652 5.17642 23.5828C5.18712 23.6042 6.03739 23.0588 6.04808 23.0802C6.1176 23.2032 1.99996 28.4171 2.06947 28.5347C2.08017 28.5508 2.93044 28.0107 2.94113 28.032C2.98392 28.1016 2.86091 30.8342 2.89299 30.893C2.90903 30.9144 4.61492 29.8716 4.63096 29.893C4.67374 29.9625 7.29408 31.1443 7.32617 31.1978C7.33686 31.2139 9.06947 30.1657 9.08016 30.1871C9.11225 30.246 12.0481 31.4331 12.0909 31.508C12.1016 31.5294 15.2566 29.6524 15.2727 29.6738C15.3048 29.7326 17.877 31.0748 17.909 31.1283C17.9197 31.1443 18.7165 30.6363 18.7272 30.6524C18.7593 30.7112 21.508 31.9679 21.5454 32.0374C21.5561 32.0534 21.7486 31.893 21.7593 31.9144C21.8288 32.0374 27.0534 32.0855 27.1123 32.1871C27.123 32.2085 31.5668 29.5935 31.5775 29.6096C31.6149 29.6684 33.9679 31.0588 34.0053 31.1283C34.016 31.1443 34.8181 30.631 34.8288 30.6524C34.9144 30.7968 40.7219 30.2299 40.7914 30.3476C40.8021 30.3689 41.5187 29.9037 41.5294 29.9197C41.5668 29.9839 44.7433 31.0588 44.7861 31.123C44.8021 31.1443 45.5989 30.6203 45.6149 30.647" stroke="black" stroke-width="3" stroke-linecap="round" stroke-linejoin="round"/>
</svg>
