<svg width="65" height="34" viewBox="0 0 65 34" fill="none" xmlns="http://www.w3.org/2000/svg">
<path d="M15.7221 4.56144C15.7435 4.59887 20.1659 1.95715 20.1819 1.98389C20.3049 2.19245 12.2943 8.9732 12.4493 9.24593C12.5991 9.50796 22.5777 3.10689 22.706 3.32614C22.8611 3.59352 13.3264 11.6203 13.46 11.8502C13.6633 12.2032 28.059 2.85021 28.3103 3.27802C28.7114 3.96786 6.2996 18.3208 6.6258 18.893C7.00548 19.5507 33.6846 2.45448 34.0376 3.06411C34.5296 3.91438 4.89317 22.417 5.24612 23.032C5.74879 23.8983 37.4975 3.39032 37.9413 4.15502C38.3905 4.93042 2.05897 27.0267 2.49212 27.7807C3.02154 28.6951 44.3638 2.26197 44.9467 3.26732C45.6472 4.48122 2.97339 29.0106 3.54558 30.0053C4.32633 31.3529 51.0055 1.04272 51.6793 2.21384C52.3745 3.4224 7.42796 29.3529 7.97876 30.3048C8.55095 31.2941 55.3905 1.22989 56.1285 2.50796C56.6632 3.4331 12.059 29.4224 12.7488 30.6096C13.4707 31.8556 61.6365 0.818122 62.3156 1.98924C62.8771 2.95716 18.4119 29.1176 18.9306 30.016C19.4975 30.9999 61.1017 4.24593 61.7167 5.31545C62.2194 6.18711 21.6205 30.1069 22.2141 31.1336C22.6739 31.9304 56.7274 9.9732 57.2622 10.8983C57.7381 11.7272 27.3959 30.5989 27.7862 31.278C28.2033 32.0053 57.5937 13.2566 57.9467 13.8662C58.2782 14.4438 35.444 28.8716 35.8397 29.5507C36.059 29.9304 51.7702 19.6737 52.0643 20.1818C52.2622 20.524 41.321 29.155 41.4814 29.4331C41.6205 29.6737 51.3263 23.4759 51.444 23.6791C51.5349 23.8395 45.3798 30.032 45.4814 30.2085C45.5082 30.2566 47.1231 29.1978 47.1499 29.2459" stroke="#BE95C4" stroke-width="3" stroke-linecap="round" stroke-linejoin="round"/>
<path d="M18.6523 3.19778C18.663 3.21917 19.4705 2.70045 19.4812 2.72184C19.5454 2.82879 23.6631 3.09617 23.7219 3.19778C23.7326 3.21917 24.5401 2.7058 24.5508 2.72184C24.5989 2.8074 28.3315 3.63093 28.3903 3.73253C28.4064 3.75392 30.7861 2.31543 30.8021 2.34217C30.8342 2.39564 32.7539 4.36355 32.786 4.41703C32.8021 4.43842 35.9144 2.57746 35.9304 2.59885C35.9892 2.70045 39.9358 3.29938 40 3.40633C40.0107 3.42772 40.9251 2.85018 40.9358 2.86623C40.9893 2.96248 45.9893 2.68975 46.0374 2.78066C46.0481 2.79671 46.1978 2.66302 46.2085 2.68441C46.2673 2.78601 50.7754 2.86623 50.8288 2.95179C50.8395 2.96783 51.1711 2.73254 51.1818 2.74858C51.2406 2.84484 55.6791 3.01061 55.7432 3.11756C55.7539 3.13895 56.9678 2.3796 56.9839 2.40099C57.0213 2.47051 60.1176 3.67906 60.1604 3.75393C60.1711 3.77532 61.8021 2.78602 61.8128 2.80206C61.8502 2.86623 61.155 6.34216 61.2085 6.42773C61.2192 6.44912 62.909 5.42238 62.9197 5.43842C63 5.57211 59.2299 10.3529 59.3155 10.5026C59.3315 10.524 61.3582 9.28869 61.3743 9.31542C61.4705 9.4812 56.1925 15.417 56.2887 15.5881C56.2994 15.6095 57.0374 15.1229 57.0534 15.1496C57.139 15.294 51.77 21.1176 51.8769 21.3047C51.8876 21.3208 52.754 20.77 52.7647 20.7914C52.8128 20.8769 50.5347 24.8983 50.5882 24.9892C50.5989 25.0106 51.5882 24.3742 51.6042 24.401" stroke="black" stroke-width="3" stroke-linecap="round" stroke-linejoin="round"/>
<path d="M15.5829 4.31016C15.6043 4.34759 20.0268 1.70589 20.0428 1.73262C20.1658 1.94118 12.1551 8.72192 12.3102 8.99465C12.3262 9.02139 14.5722 7.65775 14.5883 7.67914C14.6631 7.80749 11.123 12.7112 11.1925 12.8235C11.2032 12.8396 12.0535 12.2995 12.0642 12.3209C12.1925 12.5401 6.38503 18.4545 6.49199 18.6364C6.50268 18.6578 8.85562 17.246 8.86632 17.2674C8.96258 17.4332 4.78611 22.8075 4.85562 22.9251C4.86632 22.9465 5.71659 22.4011 5.72728 22.4225C5.7968 22.5455 1.67915 27.7594 1.74867 27.877C1.75937 27.8931 2.60964 27.3529 2.62033 27.3743C2.66311 27.4439 2.54011 30.1765 2.57219 30.2353C2.58823 30.2567 4.29412 29.2139 4.31016 29.2353C4.35294 29.3048 6.97328 30.4866 7.00537 30.5401C7.01606 30.5561 8.74332 29.508 8.75936 29.5294C8.79145 29.5882 11.7273 30.7701 11.7701 30.8503C11.7808 30.8717 14.9358 28.9947 14.9519 29.016C14.984 29.0749 17.5562 30.4171 17.5882 30.4706C17.5989 30.4866 18.3957 29.9786 18.4064 29.9947C18.4385 30.0535 21.1872 31.3102 21.2246 31.3797C21.2353 31.3957 21.4278 31.2353 21.4385 31.2567C21.508 31.3797 26.7326 31.4278 26.7915 31.5294C26.8022 31.5508 31.246 28.9358 31.2567 28.9519C31.2941 29.0107 33.6471 30.4011 33.6898 30.4706C33.7005 30.4866 34.5027 29.9733 34.5134 29.9947C34.599 30.139 40.4118 29.5722 40.4759 29.6898C40.4866 29.7112 41.2032 29.246 41.2139 29.262C41.2513 29.3262 44.4278 30.4011 44.4706 30.4652C44.4867 30.4866 45.2834 29.9626 45.2995 29.9893" stroke="black" stroke-width="3" stroke-linecap="round" stroke-linejoin="round"/>
</svg>
