<svg width="65" height="34" viewBox="0 0 65 34" fill="none" xmlns="http://www.w3.org/2000/svg">
<path d="M16.0429 5.21929C16.0643 5.25672 20.4867 2.61501 20.5027 2.64175C20.6257 2.8503 12.6151 9.63105 12.7701 9.90378C12.9199 10.1658 22.8985 3.76474 23.0268 3.984C23.1819 4.25138 13.6472 12.2781 13.7808 12.5081C13.9841 12.861 28.3798 3.50806 28.6311 3.93587C29.0322 4.62571 6.6204 18.9786 6.9466 19.5508C7.32628 20.2086 34.0054 3.11234 34.3584 3.72196C34.8504 4.57223 5.21397 23.0749 5.56692 23.6899C6.06959 24.5562 37.8183 4.04817 38.2621 4.81288C38.7113 5.58828 2.37977 27.6845 2.81292 28.4385C3.34234 29.353 44.6846 2.91982 45.2675 3.92517C45.968 5.13908 3.32628 29.6471 3.90382 30.6417C4.68457 31.9893 51.3316 1.70057 52.0054 2.8717C52.7006 4.0749 7.78619 29.9947 8.33165 30.9466C8.90384 31.9359 55.7167 1.89309 56.4493 3.16582C56.984 4.09095 12.4065 30.0642 13.0963 31.2514C13.8183 32.4974 61.9627 1.47598 62.6418 2.6471C63.2033 3.61501 18.7594 29.7647 19.2782 30.6631C19.845 31.6471 61.4279 4.90913 62.0429 5.9733C62.5456 6.84496 21.968 30.7594 22.5562 31.7808C23.0161 32.5776 57.0536 10.6311 57.583 11.5562C58.0589 12.3797 27.7273 31.2514 28.1231 31.9305C28.5402 32.6578 57.9199 13.9198 58.2675 14.5241C58.599 15.1016 35.7755 29.5241 36.1659 30.2032C36.3851 30.5829 52.091 20.3316 52.3851 20.8396C52.583 21.1819 41.6471 29.8129 41.8022 30.0856C41.9413 30.3262 51.6418 24.1284 51.7594 24.3369C51.8503 24.4974 45.6953 30.6899 45.7969 30.8664C45.8236 30.9145 47.4386 29.8557 47.4653 29.9038" stroke="#5E548E" stroke-width="3" stroke-linecap="round" stroke-linejoin="round"/>
<path d="M18.9736 3.85561C18.9843 3.877 19.7918 3.35829 19.8025 3.37968C19.8667 3.48663 23.9844 3.75401 24.0432 3.85561C24.0539 3.877 24.8613 3.36363 24.872 3.37968C24.9202 3.46524 28.6528 4.28877 28.7116 4.39037C28.7277 4.41176 31.1127 2.97326 31.1234 3C31.1555 3.05348 33.0752 5.02139 33.1073 5.07486C33.1234 5.09625 36.2357 3.23529 36.2517 3.25668C36.3105 3.35829 40.2571 3.95722 40.3212 4.06417C40.3319 4.08556 41.2464 3.50802 41.2571 3.52406C41.3106 3.62032 46.3105 3.34759 46.3587 3.4385C46.3694 3.45454 46.5191 3.32086 46.5298 3.34225C46.5886 3.44385 51.0967 3.52407 51.1501 3.60963C51.1608 3.62567 51.4924 3.39037 51.5031 3.40642C51.5619 3.50267 56.0004 3.66845 56.0645 3.7754C56.0752 3.79679 57.2891 3.03744 57.3052 3.05883C57.3426 3.12834 60.4389 4.3369 60.4817 4.41177C60.4923 4.43316 62.1234 3.44385 62.1341 3.4599C62.1715 3.52407 61.4763 7 61.5298 7.08556C61.5405 7.10695 63.2303 6.08021 63.241 6.09626C63.3212 6.22994 59.5512 11.0107 59.6368 11.1604C59.6528 11.1818 61.6795 9.94652 61.6956 9.97326C61.7918 10.139 56.5137 16.0749 56.61 16.246C56.6207 16.2674 57.3587 15.7807 57.3747 15.8075C57.4603 15.9519 52.0913 21.7754 52.1982 21.9626C52.2089 21.9786 53.0753 21.4278 53.086 21.4492C53.1341 21.5348 50.856 25.5561 50.9095 25.6471C50.9202 25.6684 51.9095 25.0321 51.9255 25.0588" stroke="black" stroke-width="3" stroke-linecap="round" stroke-linejoin="round"/>
<path d="M15.9039 4.96787C15.9253 5.00531 20.3478 2.3636 20.3638 2.39034C20.4868 2.59889 12.4761 9.37964 12.6312 9.65236C12.6473 9.6791 14.8933 8.31547 14.9093 8.33686C14.9842 8.4652 11.444 13.3689 11.5136 13.4812C11.5242 13.4973 12.3745 12.9572 12.3852 12.9786C12.5136 13.1978 6.70608 19.1123 6.81303 19.2941C6.82373 19.3155 9.17667 17.9037 9.18736 17.9251C9.28362 18.0909 5.10715 23.4652 5.17667 23.5828C5.18736 23.6042 6.03763 23.0588 6.04833 23.0802C6.11785 23.2032 2.0002 28.4171 2.06972 28.5347C2.08041 28.5508 2.93068 28.0107 2.94138 28.032C2.98416 28.1016 2.86115 30.8342 2.89324 30.893C2.90928 30.9144 4.61516 29.8716 4.6312 29.893C4.67398 29.9625 7.29433 31.1443 7.32641 31.1978C7.33711 31.2139 9.06971 30.1657 9.08041 30.1871C9.11249 30.246 12.0483 31.4331 12.0911 31.508C12.1018 31.5294 15.2569 29.6524 15.2729 29.6738C15.305 29.7326 17.8772 31.0748 17.9093 31.1283C17.92 31.1443 18.7168 30.6363 18.7275 30.6524C18.7596 30.7112 21.5082 31.9679 21.5456 32.0374C21.5563 32.0534 21.7489 31.893 21.7596 31.9144C21.8291 32.0374 27.0537 32.0855 27.1125 32.1871C27.1232 32.2085 31.567 29.5935 31.5777 29.6096C31.6152 29.6684 33.9681 31.0588 34.0055 31.1283C34.0162 31.1443 34.8184 30.631 34.8291 30.6524C34.9146 30.7968 40.7221 30.2299 40.7916 30.3476C40.8023 30.3689 41.5189 29.9037 41.5296 29.9197C41.567 29.9839 44.7435 31.0588 44.7863 31.123C44.8023 31.1443 45.5991 30.6203 45.6152 30.647" stroke="black" stroke-width="3" stroke-linecap="round" stroke-linejoin="round"/>
</svg>
