<svg width="65" height="34" viewBox="0 0 65 34" fill="none" xmlns="http://www.w3.org/2000/svg">
<path d="M16.0428 5.21929C16.0642 5.25672 20.4866 2.61501 20.5027 2.64175C20.6257 2.8503 12.615 9.63105 12.7701 9.90378C12.9198 10.1658 22.8984 3.76474 23.0268 3.984C23.1818 4.25138 13.6471 12.2781 13.7808 12.5081C13.984 12.861 28.3797 3.50806 28.631 3.93587C29.0321 4.62571 6.62034 18.9786 6.94654 19.5508C7.32622 20.2086 34.0054 3.11234 34.3583 3.72196C34.8503 4.57223 5.21391 23.0749 5.56686 23.6899C6.06953 24.5562 37.8182 4.04817 38.2621 4.81288C38.7113 5.58828 2.37971 27.6845 2.81286 28.4385C3.34228 29.353 44.6845 2.91982 45.2674 3.92517C45.968 5.13908 3.32622 29.6471 3.90376 30.6417C4.68451 31.9893 51.3316 1.70057 52.0054 2.8717C52.7006 4.0749 7.78613 29.9947 8.33158 30.9466C8.90378 31.9359 55.7166 1.89309 56.4492 3.16582C56.984 4.09095 12.4064 30.0642 13.0963 31.2514C13.8182 32.4974 61.9626 1.47598 62.6417 2.6471C63.2032 3.61501 18.7594 29.7647 19.2781 30.6631C19.8449 31.6471 61.4278 4.90913 62.0428 5.9733C62.5455 6.84496 21.9679 30.7594 22.5562 31.7808C23.0161 32.5776 57.0535 10.6311 57.5829 11.5562C58.0588 12.3797 27.7273 31.2514 28.123 31.9305C28.5401 32.6578 57.9198 13.9198 58.2674 14.5241C58.599 15.1016 35.7754 29.5241 36.1658 30.2032C36.3851 30.5829 52.0909 20.3316 52.3851 20.8396C52.5829 21.1819 41.6471 29.8129 41.8022 30.0856C41.9412 30.3262 51.6417 24.1284 51.7594 24.3369C51.8503 24.4974 45.6952 30.6899 45.7968 30.8664C45.8236 30.9145 47.4385 29.8557 47.4653 29.9038" stroke="#5E548E" stroke-width="3" stroke-linecap="round" stroke-linejoin="round"/>
<path d="M18.9733 3.85561C18.984 3.877 19.7914 3.35829 19.8021 3.37968C19.8663 3.48663 23.984 3.75401 24.0428 3.85561C24.0535 3.877 24.861 3.36363 24.8717 3.37968C24.9198 3.46524 28.6524 4.28877 28.7112 4.39037C28.7273 4.41176 31.1123 2.97326 31.123 3C31.1551 3.05348 33.0749 5.02139 33.107 5.07486C33.123 5.09625 36.2353 3.23529 36.2513 3.25668C36.3102 3.35829 40.2567 3.95722 40.3209 4.06417C40.3316 4.08556 41.246 3.50802 41.2567 3.52406C41.3102 3.62032 46.3102 3.34759 46.3583 3.4385C46.369 3.45454 46.5187 3.32086 46.5294 3.34225C46.5883 3.44385 51.0963 3.52407 51.1498 3.60963C51.1605 3.62567 51.492 3.39037 51.5027 3.40642C51.5615 3.50267 56 3.66845 56.0642 3.7754C56.0749 3.79679 57.2888 3.03744 57.3048 3.05883C57.3422 3.12834 60.4385 4.3369 60.4813 4.41177C60.492 4.43316 62.123 3.44385 62.1337 3.4599C62.1711 3.52407 61.4759 7 61.5294 7.08556C61.5401 7.10695 63.23 6.08021 63.2407 6.09626C63.3209 6.22994 59.5508 11.0107 59.6364 11.1604C59.6524 11.1818 61.6792 9.94652 61.6952 9.97326C61.7915 10.139 56.5134 16.0749 56.6096 16.246C56.6203 16.2674 57.3583 15.7807 57.3743 15.8075C57.4599 15.9519 52.0909 21.7754 52.1979 21.9626C52.2086 21.9786 53.0749 21.4278 53.0856 21.4492C53.1337 21.5348 50.8556 25.5561 50.9091 25.6471C50.9198 25.6684 51.9091 25.0321 51.9251 25.0588" stroke="black" stroke-width="3" stroke-linecap="round" stroke-linejoin="round"/>
<path d="M15.9038 4.96787C15.9251 5.00531 20.3476 2.3636 20.3637 2.39034C20.4867 2.59889 12.476 9.37964 12.631 9.65236C12.6471 9.6791 14.8931 8.31547 14.9091 8.33686C14.984 8.4652 11.4439 13.3689 11.5134 13.4812C11.5241 13.4973 12.3743 12.9572 12.385 12.9786C12.5134 13.1978 6.7059 19.1123 6.81285 19.2941C6.82354 19.3155 9.17649 17.9037 9.18718 17.9251C9.28344 18.0909 5.10697 23.4652 5.17649 23.5828C5.18718 23.6042 6.03745 23.0588 6.04815 23.0802C6.11766 23.2032 2.00002 28.4171 2.06954 28.5347C2.08023 28.5508 2.9305 28.0107 2.9412 28.032C2.98398 28.1016 2.86097 30.8342 2.89305 30.893C2.9091 30.9144 4.61498 29.8716 4.63102 29.893C4.6738 29.9625 7.29414 31.1443 7.32623 31.1978C7.33692 31.2139 9.06953 30.1657 9.08022 30.1871C9.11231 30.246 12.0481 31.4331 12.0909 31.508C12.1016 31.5294 15.2567 29.6524 15.2727 29.6738C15.3048 29.7326 17.877 31.0748 17.9091 31.1283C17.9198 31.1443 18.7166 30.6363 18.7273 30.6524C18.7594 30.7112 21.508 31.9679 21.5455 32.0374C21.5562 32.0534 21.7487 31.893 21.7594 31.9144C21.8289 32.0374 27.0535 32.0855 27.1123 32.1871C27.123 32.2085 31.5669 29.5935 31.5776 29.6096C31.615 29.6684 33.9679 31.0588 34.0053 31.1283C34.016 31.1443 34.8182 30.631 34.8289 30.6524C34.9145 30.7968 40.7219 30.2299 40.7914 30.3476C40.8021 30.3689 41.5187 29.9037 41.5294 29.9197C41.5668 29.9839 44.7433 31.0588 44.7861 31.123C44.8022 31.1443 45.5989 30.6203 45.615 30.647" stroke="black" stroke-width="3" stroke-linecap="round" stroke-linejoin="round"/>
</svg>
