<svg width="65" height="34" viewBox="0 0 65 34" fill="none" xmlns="http://www.w3.org/2000/svg">
<path d="M15.7216 4.56144C15.743 4.59887 20.1654 1.95715 20.1815 1.98389C20.3044 2.19245 12.2938 8.9732 12.4489 9.24593C12.5986 9.50796 22.5772 3.10689 22.7055 3.32614C22.8606 3.59352 13.3259 11.6203 13.4596 11.8502C13.6628 12.2032 28.0585 2.85021 28.3098 3.27802C28.7109 3.96786 6.29911 18.3208 6.62531 18.893C7.00499 19.5507 33.6841 2.45448 34.0371 3.06411C34.5291 3.91438 4.89269 22.417 5.24563 23.032C5.7483 23.8983 37.497 3.39032 37.9408 4.15502C38.39 4.93042 2.05848 27.0267 2.49164 27.7807C3.02105 28.6951 44.3633 2.26197 44.9462 3.26732C45.6467 4.48122 2.9729 29.0106 3.5451 30.0053C4.32584 31.3529 51.005 1.04272 51.6788 2.21384C52.374 3.4224 7.42747 29.3529 7.97827 30.3048C8.55046 31.2941 55.39 1.22989 56.128 2.50796C56.6628 3.4331 12.0585 29.4224 12.7483 30.6096C13.4702 31.8556 61.636 0.818122 62.3152 1.98924C62.8767 2.95716 18.4114 29.1176 18.9301 30.016C19.497 30.9999 61.1013 4.24593 61.7162 5.31545C62.2189 6.18711 21.62 30.1069 22.2136 31.1336C22.6735 31.9304 56.7269 9.9732 57.2617 10.8983C57.7376 11.7272 27.3954 30.5989 27.7857 31.278C28.2029 32.0053 57.5932 13.2566 57.9462 13.8662C58.2777 14.4438 35.4435 28.8716 35.8392 29.5507C36.0585 29.9304 51.7697 19.6737 52.0638 20.1818C52.2617 20.524 41.3205 29.155 41.4809 29.4331C41.62 29.6737 51.3258 23.4759 51.4435 23.6791C51.5344 23.8395 45.3793 30.032 45.4809 30.2085C45.5077 30.2566 47.1227 29.1978 47.1494 29.2459" stroke="#BE95C4" stroke-width="3" stroke-linecap="round" stroke-linejoin="round"/>
<path d="M18.6523 3.19778C18.663 3.21917 19.4705 2.70045 19.4812 2.72184C19.5454 2.82879 23.6631 3.09617 23.7219 3.19778C23.7326 3.21917 24.5401 2.7058 24.5508 2.72184C24.5989 2.8074 28.3315 3.63093 28.3903 3.73253C28.4064 3.75392 30.7861 2.31543 30.8021 2.34217C30.8342 2.39564 32.7539 4.36355 32.786 4.41703C32.8021 4.43842 35.9144 2.57746 35.9304 2.59885C35.9892 2.70045 39.9358 3.29938 40 3.40633C40.0107 3.42772 40.9251 2.85018 40.9358 2.86623C40.9893 2.96248 45.9893 2.68975 46.0374 2.78066C46.0481 2.79671 46.1978 2.66302 46.2085 2.68441C46.2673 2.78601 50.7754 2.86623 50.8288 2.95179C50.8395 2.96783 51.1711 2.73254 51.1818 2.74858C51.2406 2.84484 55.6791 3.01061 55.7432 3.11756C55.7539 3.13895 56.9678 2.3796 56.9839 2.40099C57.0213 2.47051 60.1176 3.67906 60.1604 3.75393C60.1711 3.77532 61.8021 2.78602 61.8128 2.80206C61.8502 2.86623 61.155 6.34216 61.2085 6.42773C61.2192 6.44912 62.909 5.42238 62.9197 5.43842C63 5.57211 59.2299 10.3529 59.3155 10.5026C59.3315 10.524 61.3582 9.28869 61.3743 9.31542C61.4705 9.4812 56.1925 15.417 56.2887 15.5881C56.2994 15.6095 57.0374 15.1229 57.0534 15.1496C57.139 15.294 51.77 21.1176 51.8769 21.3047C51.8876 21.3208 52.754 20.77 52.7647 20.7914C52.8128 20.8769 50.5347 24.8983 50.5882 24.9892C50.5989 25.0106 51.5882 24.3742 51.6042 24.401" stroke="black" stroke-width="3" stroke-linecap="round" stroke-linejoin="round"/>
<path d="M15.5827 4.31016C15.604 4.34759 20.0265 1.70589 20.0426 1.73262C20.1656 1.94118 12.1548 8.72192 12.3099 8.99465C12.326 9.02139 14.572 7.65775 14.588 7.67914C14.6629 7.80749 11.1227 12.7112 11.1923 12.8235C11.203 12.8396 12.0532 12.2995 12.0639 12.3209C12.1923 12.5401 6.38479 18.4545 6.49174 18.6364C6.50244 18.6578 8.85538 17.246 8.86608 17.2674C8.96233 17.4332 4.78586 22.8075 4.85538 22.9251C4.86608 22.9465 5.71635 22.4011 5.72704 22.4225C5.79656 22.5455 1.67891 27.7594 1.74843 27.877C1.75912 27.8931 2.60939 27.3529 2.62009 27.3743C2.66287 27.4439 2.53986 30.1765 2.57195 30.2353C2.58799 30.2567 4.29387 29.2139 4.30991 29.2353C4.3527 29.3048 6.97304 30.4866 7.00512 30.5401C7.01582 30.5561 8.74307 29.508 8.75912 29.5294C8.7912 29.5882 11.727 30.7701 11.7698 30.8503C11.7805 30.8717 14.9356 28.9947 14.9516 29.016C14.9837 29.0749 17.5559 30.4171 17.588 30.4706C17.5987 30.4866 18.3955 29.9786 18.4062 29.9947C18.4383 30.0535 21.1869 31.3102 21.2244 31.3797C21.2351 31.3957 21.4276 31.2353 21.4383 31.2567C21.5078 31.3797 26.7324 31.4278 26.7912 31.5294C26.8019 31.5508 31.2458 28.9358 31.2564 28.9519C31.2939 29.0107 33.6468 30.4011 33.6896 30.4706C33.7003 30.4866 34.5025 29.9733 34.5131 29.9947C34.5987 30.139 40.4115 29.5722 40.4757 29.6898C40.4864 29.7112 41.203 29.246 41.2137 29.262C41.2511 29.3262 44.4276 30.4011 44.4704 30.4652C44.4864 30.4866 45.2832 29.9626 45.2992 29.9893" stroke="black" stroke-width="3" stroke-linecap="round" stroke-linejoin="round"/>
</svg>
