<svg width="45" height="45" viewBox="0 0 45 45" fill="none" xmlns="http://www.w3.org/2000/svg">
<path d="M30.125 36.75V33C30.125 31.0109 29.3348 29.1032 27.9283 27.6967C26.5218 26.2902 24.6141 25.5 22.625 25.5H9.5C7.51088 25.5 5.60322 26.2902 4.1967 27.6967C2.79018 29.1032 2 31.0109 2 33V36.75" stroke="white" stroke-width="2" stroke-linecap="round" stroke-linejoin="round"/>
<path d="M16.0625 18C20.2046 18 23.5625 14.6421 23.5625 10.5C23.5625 6.35786 20.2046 3 16.0625 3C11.9204 3 8.5625 6.35786 8.5625 10.5C8.5625 14.6421 11.9204 18 16.0625 18Z" stroke="white" stroke-width="2" stroke-linecap="round" stroke-linejoin="round"/>
<path d="M33.875 12.375L43.25 21.75" stroke="white" stroke-width="2" stroke-linecap="round" stroke-linejoin="round"/>
<path d="M43.25 12.375L33.875 21.75" stroke="white" stroke-width="2" stroke-linecap="round" stroke-linejoin="round"/>
</svg>
