<svg width="33" height="33" viewBox="0 0 33 33" fill="none" xmlns="http://www.w3.org/2000/svg">
<path d="M0 16.5C0 12.1239 1.73839 7.92709 4.83274 4.83274C7.92709 1.73839 12.1239 0 16.5 0C20.8761 0 25.0729 1.73839 28.1673 4.83274C31.2616 7.92709 33 12.1239 33 16.5C33 20.8761 31.2616 25.0729 28.1673 28.1673C25.0729 31.2616 20.8761 33 16.5 33C12.1239 33 7.92709 31.2616 4.83274 28.1673C1.73839 25.0729 0 20.8761 0 16.5ZM10.5168 3.88385C8.66495 4.76453 7.02892 6.04094 5.72423 7.623L7.36661 12.9639L9.92031 13.8143L15.2308 9.77815V7.02646L10.5168 3.88385ZM2.62985 18.1094C2.88369 20.3052 3.64523 22.3486 4.79515 24.1128H9.62838L11.2403 22.5009L9.15115 16.2309L6.55177 15.3653L2.62985 18.1094ZM13.6722 30.1722C15.5378 30.5561 17.4622 30.5561 19.3278 30.1722L21.3332 25.6638L19.7822 24.1154H13.2178L11.6693 25.6638L13.6722 30.1747V30.1722ZM28.2023 24.1154C29.3192 22.4045 30.0706 20.4346 30.3448 18.315L26.4254 15.3755L23.8488 16.2335L21.7597 22.5035L23.3716 24.1154H28.2023ZM27.2428 7.58238C25.9436 6.01793 24.3195 4.75501 22.4832 3.88131L17.7692 7.02646V9.77815L23.0797 13.8143L25.6283 12.9665L27.2428 7.58238Z" fill="white"/>
</svg>
