<svg width="41" height="44" viewBox="0 0 41 44" fill="none" xmlns="http://www.w3.org/2000/svg">
<path d="M3.54134 11.316C3.87183 10.8717 4.30706 10.2703 4.6556 9.84053C5.69943 8.65584 5.83488 8.50053 6.7848 7.62465C7.06652 7.39349 7.40062 7.11537 7.72749 6.85351C5.31657 8.89422 5.00956 11.1534 7.22183 12.5494C7.21822 12.5494 7.21822 12.5494 7.21822 12.553C10.3118 14.4168 17.0913 14.014 22.4404 11.6266C27.6216 9.315 29.5341 6.00834 26.9769 4.04348C24.7322 3.6227 22.0558 3.57394 19.2241 3.95319L18.9297 3.46739L19.1735 2.66194C20.8386 2.51205 22.4206 2.54817 23.7858 2.78114C24.1163 2.83712 24.5516 2.93283 24.8766 3.00146C25.5051 3.15496 25.8464 3.24707 26.2564 3.3789C26.6753 3.50351 27.0329 3.62812 27.656 3.85928C28.2664 4.09947 28.53 4.20782 29.0194 4.45162C29.5675 4.70168 30.1 4.98452 30.6141 5.29861C34.6883 7.86122 32.1545 12.5368 24.9651 15.7405C17.7956 18.9334 8.65936 19.4354 4.56531 16.9035C4.5635 16.8999 4.55808 16.8963 4.54725 16.8927H4.55447C2.31873 15.4768 2.08395 13.4217 3.54134 11.316ZM22.1948 29.2308L22.137 26.3522L20.0909 24.0767C13.3313 25.6081 6.68728 25.2794 2.99234 23.1033C2.9797 23.0889 2.949 23.0744 2.93635 23.06C0.845084 21.7723 0.328588 20.1109 0.485704 18.3049C-0.00370396 20.947 -0.0434345 21.9005 0.0269969 24.1616C0.113682 25.5774 0.931769 26.8831 2.57697 27.9125L2.58962 27.9269C6.52835 30.3758 14.7345 30.9067 22.1948 29.2308ZM30.7279 32.5267C21.1871 36.3534 9.24628 36.5792 4.05964 33.0377C4.61977 34.4066 5.38191 35.6837 6.32067 36.8266C11.0811 40.0773 22.0413 39.8696 30.7947 36.357C35.9181 34.3037 39.1507 31.5713 39.9995 29.0105L40.2379 28.2394C40.8032 26.2853 40.9097 24.6582 41 23.2098C40.8971 26.354 37.1931 29.9297 30.7279 32.5267ZM9.66707 39.8967C9.96685 40.182 10.9095 41.3396 15.6862 42.6182C16.9775 42.9035 20.2282 43.8191 26.2329 42.4882L26.269 41.941L25.794 41.1969C20.2227 42.5153 14.0338 42.0746 9.66707 39.8967ZM23.4536 17.1257L28.5264 20.9705C28.5264 20.9705 29.6118 21.7525 28.5878 22.3015C27.5675 22.845 24.9471 24.176 24.9471 24.176L22.3592 23.2098L21.0607 23.7877L23.3506 25.7761L23.3687 28.8696L24.7141 28.2719L25.6062 25.6587C25.6062 25.6587 28.3458 24.604 29.433 24.2067C30.5256 23.8184 30.3793 25.1476 30.3793 25.1476L29.8411 31.4882L31.629 30.6936L34.5727 22.1389C34.5727 22.1389 36.133 21.3804 37.231 20.714C38.3272 20.0477 38.7029 18.9424 38.7029 18.9424C38.7029 18.9424 37.6337 18.4819 36.4021 18.8521C35.1705 19.2187 33.565 19.8725 33.565 19.8725L25.236 16.3347L23.4536 17.1257ZM12.7209 4.9609L16.1648 7.70411L17.1057 7.56325L15.2311 5.10176C15.2311 5.10176 14.823 4.59249 15.372 4.47149C15.9246 4.34869 17.3224 4.06335 17.3224 4.06335L18.3735 4.90311L19.0814 4.79836L18.2796 3.52337L18.7021 2.10933L18.0177 2.20866L17.2068 3.28499C17.2068 3.28499 15.7838 3.41863 15.2239 3.46558C14.6605 3.50893 14.9025 2.90394 14.9025 2.90394L15.9824 0L15.0361 0.139057L12.5439 3.76718C12.5439 3.76718 11.7132 3.91887 11.1118 4.09044C10.5086 4.2602 10.1908 4.72613 10.1908 4.72613C10.1908 4.72613 10.6332 5.0837 11.2563 5.07106C11.8848 5.05842 12.7209 4.9609 12.7209 4.9609ZM29.7418 40.2091L27.5133 39.0443L27.0004 39.223L28.3205 40.4041C28.3205 40.4041 28.6023 40.6443 28.3061 40.7725C28.0099 40.899 27.255 41.2096 27.255 41.2096L26.632 40.9315L26.2618 41.0651L26.7801 41.6177L26.7295 42.425L27.116 42.2913L27.4049 41.6358C27.4049 41.6358 28.1887 41.4028 28.5011 41.3197C28.8118 41.2349 28.7413 41.5997 28.7413 41.5997L28.447 43.3424L28.9617 43.1636L29.9712 40.8592C29.9712 40.8592 30.4172 40.684 30.7369 40.5233C31.0565 40.3626 31.183 40.0664 31.183 40.0664C31.183 40.0664 30.8994 39.9111 30.5491 39.9888C30.1969 40.0628 29.7418 40.2091 29.7418 40.2091Z" fill="white"/>
</svg>
