<svg width="29" height="39" viewBox="0 0 29 39" fill="none" xmlns="http://www.w3.org/2000/svg">
<path d="M2.07143 38.7169C1.48452 38.7169 0.992215 38.5181 0.5945 38.1203C0.198167 37.724 0 37.2324 0 36.6455C0 36.0586 0.198167 35.567 0.5945 35.1706C0.992215 34.7729 1.48452 34.5741 2.07143 34.5741H10.3571V30.4312C7.49167 30.4312 5.04945 29.421 3.0305 27.4007C1.01017 25.3818 0 22.9395 0 20.0741C0 17.9681 0.578619 16.052 1.73586 14.3259C2.89171 12.5997 4.45357 11.3395 6.42143 10.5455C6.69762 9.37169 7.31076 8.42228 8.26086 7.69728C9.20957 6.97228 10.2881 6.60978 11.4964 6.60978L11.0304 5.31514C10.7887 4.69371 10.7887 4.14961 11.0304 3.68285C11.272 3.21747 11.6518 2.89847 12.1696 2.72585L12.325 2.67407V2.62228C12.0488 2.00085 12.0405 1.47402 12.3001 1.04178C12.5584 0.610923 12.9464 0.309185 13.4643 0.136566C13.9821 -0.0360533 14.4827 -0.0450295 14.9661 0.109637C15.4494 0.265685 15.8292 0.637161 16.1054 1.22407L16.1571 1.32764C16.7095 1.15502 17.2536 1.18057 17.7894 1.40428C18.3239 1.62938 18.6774 2.01811 18.85 2.57049L23.0964 14.2223C23.3381 14.8437 23.3291 15.3961 23.0695 15.8794C22.8113 16.3628 22.4232 16.6907 21.9054 16.8634H21.8536L21.9054 17.0187C22.078 17.502 22.0524 17.9944 21.8287 18.4956C21.6036 18.9955 21.1976 19.3491 20.6107 19.5562C20.1274 19.7288 19.6268 19.7288 19.1089 19.5562C18.5911 19.3836 18.2458 19.0211 18.0732 18.4687L18.0214 18.3134C17.469 18.486 16.9256 18.4597 16.3912 18.2346C15.8554 18.0109 15.5012 17.6229 15.3286 17.0705L14.8107 15.6205C14.2929 16.1038 13.6977 16.4663 13.0251 16.708C12.3512 16.9497 11.669 17.036 10.9786 16.9669C10.219 16.8979 9.51131 16.6645 8.85536 16.2668C8.1994 15.8704 7.62976 15.3788 7.14643 14.7919C6.21429 15.3443 5.481 16.0866 4.94657 17.0187C4.41076 17.9509 4.14286 18.9693 4.14286 20.0741C4.14286 21.8003 4.74702 23.2675 5.95536 24.4759C7.16369 25.6842 8.63095 26.2884 10.3571 26.2884H24.8571C25.444 26.2884 25.9357 26.4865 26.332 26.8829C26.7297 27.2806 26.9286 27.7729 26.9286 28.3598C26.9286 28.9467 26.7297 29.4383 26.332 29.8346C25.9357 30.2324 25.444 30.4312 24.8571 30.4312H16.5714V34.5741H26.9286C27.5155 34.5741 28.0071 34.7729 28.4034 35.1706C28.8011 35.567 29 36.0586 29 36.6455C29 37.2324 28.8011 37.724 28.4034 38.1203C28.0071 38.5181 27.5155 38.7169 26.9286 38.7169H2.07143ZM17.9179 14.9991L19.7821 14.2741L16.2607 4.53835L14.2929 5.26335L17.9179 14.9991ZM11.3929 13.8598C11.9798 13.8598 12.4721 13.6609 12.8698 13.2632C13.2661 12.8669 13.4643 12.3753 13.4643 11.7884C13.4643 11.2014 13.2661 10.7091 12.8698 10.3114C12.4721 9.91509 11.9798 9.71692 11.3929 9.71692C10.806 9.71692 10.3143 9.91509 9.918 10.3114C9.52029 10.7091 9.32143 11.2014 9.32143 11.7884C9.32143 12.3753 9.52029 12.8669 9.918 13.2632C10.3143 13.6609 10.806 13.8598 11.3929 13.8598Z" fill="white"/>
</svg>
