<svg width="38" height="41" viewBox="0 0 38 41" fill="none" xmlns="http://www.w3.org/2000/svg">
<path d="M37 19.2832L19.98 36.6728C17.895 38.8032 15.067 40 12.1182 40C9.1695 40 6.34153 38.8032 4.25646 36.6728C2.17138 34.5425 1 31.6531 1 28.6403C1 25.6275 2.17138 22.7381 4.25646 20.6078L21.2764 3.21812C22.6665 1.79788 24.5518 1 26.5176 1C28.4834 1 30.3688 1.79788 31.7588 3.21812C33.1489 4.63836 33.9298 6.56462 33.9298 8.57314C33.9298 10.5817 33.1489 12.5079 31.7588 13.9282L14.7203 31.3178C14.0253 32.0279 13.0826 32.4269 12.0997 32.4269C11.1168 32.4269 10.1742 32.0279 9.47913 31.3178C8.7841 30.6077 8.39364 29.6445 8.39364 28.6403C8.39364 27.636 8.7841 26.6729 9.47913 25.9628L25.2027 9.91663" stroke="white" stroke-width="2" stroke-linecap="round" stroke-linejoin="round"/>
</svg>
